<svg width="196" height="40" viewBox="0 0 196 40" fill="none" xmlns="http://www.w3.org/2000/svg">
<path d="M62.4015 20.0303C62.4015 21.8968 62.0519 23.4955 61.3527 24.8263C60.659 26.1515 59.7117 27.1665 58.5106 27.8714C57.3151 28.5763 55.9589 28.9287 54.442 28.9287C52.9251 28.9287 51.566 28.5763 50.3649 27.8714C49.1694 27.1609 48.2221 26.143 47.5228 24.8178C46.8292 23.487 46.4824 21.8912 46.4824 20.0303C46.4824 18.1637 46.8292 16.5679 47.5228 15.2427C48.2221 13.9119 49.1694 12.894 50.3649 12.1891C51.566 11.4843 52.9251 11.1318 54.442 11.1318C55.9589 11.1318 57.3151 11.4843 58.5106 12.1891C59.7117 12.894 60.659 13.9119 61.3527 15.2427C62.0519 16.5679 62.4015 18.1637 62.4015 20.0303ZM59.2465 20.0303C59.2465 18.7164 59.0406 17.6083 58.629 16.706C58.223 15.7981 57.6591 15.113 56.9373 14.6506C56.2155 14.1825 55.3837 13.9485 54.442 13.9485C53.5002 13.9485 52.6685 14.1825 51.9467 14.6506C51.2249 15.113 50.6582 15.7981 50.2465 16.706C49.8405 17.6083 49.6375 18.7164 49.6375 20.0303C49.6375 21.3442 49.8405 22.4551 50.2465 23.363C50.6582 24.2652 51.2249 24.9504 51.9467 25.4184C52.6685 25.8808 53.5002 26.112 54.442 26.112C55.3837 26.112 56.2155 25.8808 56.9373 25.4184C57.6591 24.9504 58.223 24.2652 58.629 23.363C59.0406 22.4551 59.2465 21.3442 59.2465 20.0303Z" fill="#006C35"/>
<path d="M64.5185 28.6919V15.6995H67.4874V17.8649H67.6228C67.8596 17.1149 68.2656 16.5369 68.8408 16.1308C69.4216 15.7192 70.0842 15.5134 70.8286 15.5134C70.9977 15.5134 71.1867 15.5218 71.3953 15.5387C71.6096 15.55 71.7872 15.5698 71.9282 15.598V18.4147C71.7985 18.3696 71.5927 18.3301 71.3107 18.2962C71.0344 18.2568 70.7665 18.237 70.5071 18.237C69.9489 18.237 69.447 18.3583 69.0015 18.6008C68.5617 18.8376 68.2149 19.1675 67.9611 19.5904C67.7073 20.0133 67.5805 20.5011 67.5805 21.0538V28.6919H64.5185Z" fill="#006C35"/>
<path d="M78.3632 33.8347C77.2636 33.8347 76.3191 33.6853 75.5296 33.3864C74.7401 33.0932 74.1057 32.6984 73.6264 32.2022C73.1471 31.706 72.8144 31.1562 72.6283 30.5528L75.3858 29.8845C75.5099 30.1383 75.6903 30.3892 75.9272 30.6374C76.164 30.8911 76.4826 31.0998 76.883 31.2633C77.289 31.4325 77.7993 31.5171 78.414 31.5171C79.2824 31.5171 80.0014 31.3056 80.5709 30.8827C81.1405 30.4654 81.4253 29.7774 81.4253 28.8188V26.3573H81.273C81.1151 26.6731 80.8839 26.9973 80.5794 27.33C80.2805 27.6627 79.883 27.9419 79.3867 28.1674C78.8961 28.393 78.2787 28.5058 77.5343 28.5058C76.5362 28.5058 75.6311 28.2718 74.8191 27.8037C74.0127 27.33 73.3699 26.6252 72.8905 25.6891C72.4168 24.7473 72.18 23.5688 72.18 22.1534C72.18 20.7267 72.4168 19.5227 72.8905 18.5415C73.3699 17.5547 74.0155 16.8075 74.8275 16.3C75.6396 15.7869 76.5446 15.5303 77.5428 15.5303C78.304 15.5303 78.93 15.66 79.4206 15.9194C79.9168 16.1731 80.3115 16.4805 80.6048 16.8414C80.898 17.1966 81.1208 17.5322 81.273 17.8479H81.4422V15.6995H84.4619V28.9033C84.4619 30.0142 84.1969 30.9334 83.6668 31.6608C83.1367 32.3883 82.4121 32.9325 81.4929 33.2934C80.5738 33.6543 79.5305 33.8347 78.3632 33.8347ZM78.3886 26.1035C79.0371 26.1035 79.5897 25.9457 80.0465 25.6299C80.5033 25.3141 80.8501 24.8601 81.0869 24.268C81.3238 23.6759 81.4422 22.9654 81.4422 22.1365C81.4422 21.3188 81.3238 20.6026 81.0869 19.988C80.8557 19.3733 80.5117 18.8968 80.055 18.5585C79.6038 18.2145 79.0484 18.0425 78.3886 18.0425C77.7063 18.0425 77.1367 18.2201 76.68 18.5754C76.2232 18.9306 75.8792 19.4184 75.648 20.0387C75.4168 20.6534 75.3012 21.3526 75.3012 22.1365C75.3012 22.9316 75.4168 23.628 75.648 24.2257C75.8849 24.8178 76.2317 25.2802 76.6884 25.6129C77.1508 25.94 77.7176 26.1035 78.3886 26.1035Z" fill="#006C35"/>
<path d="M90.6242 28.9541C89.8009 28.9541 89.0593 28.8075 88.3996 28.5142C87.7454 28.2154 87.2266 27.7755 86.8432 27.1947C86.4654 26.6139 86.2764 25.8977 86.2764 25.0462C86.2764 24.3131 86.4118 23.7069 86.6825 23.2276C86.9531 22.7483 87.3225 22.3648 87.7905 22.0772C88.2586 21.7897 88.7858 21.5726 89.3723 21.4259C89.9644 21.2737 90.5762 21.1637 91.2078 21.096C91.9691 21.0171 92.5866 20.9466 93.0602 20.8846C93.5339 20.8169 93.8779 20.7154 94.0922 20.5801C94.3121 20.4391 94.4221 20.222 94.4221 19.9288V19.878C94.4221 19.2408 94.2332 18.7474 93.8554 18.3978C93.4775 18.0481 92.9334 17.8733 92.2228 17.8733C91.4728 17.8733 90.8779 18.0369 90.4381 18.3639C90.0039 18.691 89.7106 19.0773 89.5584 19.5227L86.6994 19.1167C86.9249 18.3273 87.2971 17.6675 87.8159 17.1374C88.3347 16.6017 88.9691 16.2013 89.7191 15.9363C90.4691 15.6656 91.298 15.5303 92.2059 15.5303C92.8319 15.5303 93.455 15.6036 94.0753 15.7502C94.6956 15.8968 95.2623 16.1393 95.7755 16.4776C96.2886 16.8104 96.7003 17.2643 97.0104 17.8395C97.3262 18.4147 97.4841 19.1337 97.4841 19.9964V28.6919H94.5405V26.9071H94.439C94.2529 27.268 93.9907 27.6064 93.6523 27.9221C93.3196 28.2323 92.8995 28.4832 92.392 28.675C91.8901 28.861 91.3009 28.9541 90.6242 28.9541ZM91.4193 26.7041C92.0339 26.7041 92.5668 26.5829 93.018 26.3404C93.4691 26.0923 93.8159 25.7652 94.0584 25.3592C94.3065 24.9532 94.4305 24.5105 94.4305 24.0312V22.5002C94.3347 22.5791 94.1711 22.6524 93.9399 22.7201C93.7144 22.7878 93.4606 22.847 93.1787 22.8977C92.8967 22.9485 92.6176 22.9936 92.3413 23.0331C92.0649 23.0725 91.8253 23.1064 91.6223 23.1346C91.1655 23.1966 90.7567 23.2981 90.3958 23.4391C90.0349 23.5801 89.7501 23.7774 89.5415 24.0312C89.3328 24.2793 89.2285 24.6007 89.2285 24.9955C89.2285 25.5594 89.4343 25.9851 89.846 26.2727C90.2576 26.5603 90.7821 26.7041 91.4193 26.7041Z" fill="#006C35"/>
<path d="M102.91 21.0791V28.6919H99.8484V15.6995H102.775V17.9072H102.927C103.226 17.1797 103.703 16.6017 104.357 16.1731C105.017 15.7446 105.832 15.5303 106.801 15.5303C107.698 15.5303 108.479 15.722 109.144 16.1055C109.816 16.4889 110.334 17.0444 110.701 17.7718C111.073 18.4993 111.256 19.3818 111.251 20.4194V28.6919H108.189V20.893C108.189 20.0246 107.963 19.3451 107.512 18.8545C107.066 18.3639 106.449 18.1186 105.66 18.1186C105.124 18.1186 104.647 18.237 104.23 18.4739C103.818 18.7051 103.494 19.0406 103.257 19.4805C103.026 19.9203 102.91 20.4532 102.91 21.0791Z" fill="#006C35"/>
<path d="M113.649 28.6919V15.6995H116.711V28.6919H113.649ZM115.188 13.8555C114.703 13.8555 114.286 13.6948 113.936 13.3733C113.587 13.0463 113.412 12.6544 113.412 12.1976C113.412 11.7352 113.587 11.3433 113.936 11.0218C114.286 10.6948 114.703 10.5312 115.188 10.5312C115.679 10.5312 116.096 10.6948 116.44 11.0218C116.79 11.3433 116.965 11.7352 116.965 12.1976C116.965 12.6544 116.79 13.0463 116.44 13.3733C116.096 13.6948 115.679 13.8555 115.188 13.8555Z" fill="#006C35"/>
<path d="M124.812 28.9456C123.515 28.9456 122.402 28.6609 121.471 28.0913C120.546 27.5218 119.833 26.7351 119.331 25.7314C118.835 24.722 118.587 23.5603 118.587 22.2464C118.587 20.9269 118.84 19.7624 119.348 18.753C119.856 17.738 120.572 16.9485 121.496 16.3846C122.427 15.8151 123.527 15.5303 124.795 15.5303C125.85 15.5303 126.783 15.7248 127.595 16.1139C128.413 16.4974 129.064 17.0416 129.549 17.7464C130.034 18.4457 130.31 19.2634 130.378 20.1994H127.451C127.333 19.5735 127.051 19.0519 126.605 18.6346C126.166 18.2117 125.576 18.0002 124.838 18.0002C124.212 18.0002 123.662 18.1694 123.188 18.5077C122.715 18.8404 122.345 19.3197 122.08 19.9457C121.821 20.5716 121.691 21.3216 121.691 22.1957C121.691 23.081 121.821 23.8423 122.08 24.4795C122.34 25.1111 122.703 25.5988 123.171 25.9428C123.645 26.2812 124.2 26.4503 124.838 26.4503C125.289 26.4503 125.692 26.3658 126.047 26.1966C126.408 26.0218 126.71 25.7708 126.952 25.4438C127.195 25.1167 127.361 24.7192 127.451 24.2511H130.378C130.305 25.1703 130.034 25.9851 129.566 26.6956C129.098 27.4005 128.461 27.9532 127.654 28.3535C126.848 28.7483 125.901 28.9456 124.812 28.9456Z" fill="#006C35"/>
<path d="M137.507 11.3687H141.347L146.49 23.9212H146.693L151.836 11.3687H155.676V28.6919H152.665V16.7906H152.504L147.716 28.6411H145.466L140.679 16.7652H140.518V28.6919H137.507V11.3687Z" fill="#006C35"/>
<path d="M161.982 28.9541C161.159 28.9541 160.417 28.8075 159.757 28.5142C159.103 28.2154 158.584 27.7755 158.201 27.1947C157.823 26.6139 157.634 25.8977 157.634 25.0462C157.634 24.3131 157.77 23.7069 158.04 23.2276C158.311 22.7483 158.68 22.3648 159.148 22.0772C159.616 21.7897 160.144 21.5726 160.73 21.4259C161.322 21.2737 161.934 21.1637 162.566 21.096C163.327 21.0171 163.944 20.9466 164.418 20.8846C164.892 20.8169 165.236 20.7154 165.45 20.5801C165.67 20.4391 165.78 20.222 165.78 19.9288V19.878C165.78 19.2408 165.591 18.7474 165.213 18.3978C164.835 18.0481 164.291 17.8733 163.581 17.8733C162.831 17.8733 162.236 18.0369 161.796 18.3639C161.362 18.691 161.068 19.0773 160.916 19.5227L158.057 19.1167C158.283 18.3273 158.655 17.6675 159.174 17.1374C159.693 16.6017 160.327 16.2013 161.077 15.9363C161.827 15.6656 162.656 15.5303 163.564 15.5303C164.19 15.5303 164.813 15.6036 165.433 15.7502C166.053 15.8968 166.62 16.1393 167.133 16.4776C167.646 16.8104 168.058 17.2643 168.368 17.8395C168.684 18.4147 168.842 19.1337 168.842 19.9964V28.6919H165.898V26.9071H165.797C165.611 27.268 165.349 27.6064 165.01 27.9221C164.677 28.2323 164.257 28.4832 163.75 28.675C163.248 28.861 162.659 28.9541 161.982 28.9541ZM162.777 26.7041C163.392 26.7041 163.925 26.5829 164.376 26.3404C164.827 26.0923 165.174 25.7652 165.416 25.3592C165.664 24.9532 165.788 24.5105 165.788 24.0312V22.5002C165.693 22.5791 165.529 22.6524 165.298 22.7201C165.072 22.7878 164.818 22.847 164.536 22.8977C164.255 22.9485 163.975 22.9936 163.699 23.0331C163.423 23.0725 163.183 23.1064 162.98 23.1346C162.523 23.1966 162.115 23.2981 161.754 23.4391C161.393 23.5801 161.108 23.7774 160.899 24.0312C160.691 24.2793 160.586 24.6007 160.586 24.9955C160.586 25.5594 160.792 25.9851 161.204 26.2727C161.615 26.5603 162.14 26.7041 162.777 26.7041Z" fill="#006C35"/>
<path d="M171.206 33.564V15.6995H174.218V17.8479H174.395C174.553 17.5322 174.776 17.1966 175.063 16.8414C175.351 16.4805 175.74 16.1731 176.231 15.9194C176.721 15.66 177.347 15.5303 178.109 15.5303C179.112 15.5303 180.017 15.7869 180.824 16.3C181.636 16.8075 182.279 17.5604 182.752 18.5585C183.232 19.5509 183.471 20.769 183.471 22.2126C183.471 23.6393 183.237 24.8517 182.769 25.8498C182.301 26.8479 181.664 27.6092 180.858 28.1336C180.051 28.658 179.138 28.9203 178.117 28.9203C177.373 28.9203 176.755 28.7962 176.265 28.5481C175.774 28.3 175.379 28.0011 175.08 27.6515C174.787 27.2962 174.559 26.9607 174.395 26.6449H174.268V33.564H171.206ZM174.209 22.1957C174.209 23.0359 174.328 23.7718 174.564 24.4034C174.807 25.0349 175.154 25.5284 175.605 25.8836C176.062 26.2332 176.614 26.4081 177.263 26.4081C177.939 26.4081 178.506 26.2276 178.963 25.8667C179.42 25.5002 179.764 25.0011 179.995 24.3695C180.232 23.7323 180.35 23.0077 180.35 22.1957C180.35 21.3893 180.234 20.6731 180.003 20.0472C179.772 19.4212 179.428 18.9306 178.971 18.5754C178.515 18.2201 177.945 18.0425 177.263 18.0425C176.609 18.0425 176.053 18.2145 175.596 18.5585C175.14 18.9025 174.793 19.3846 174.556 20.0049C174.325 20.6252 174.209 21.3554 174.209 22.1957Z" fill="#006C35"/>
<path d="M195.648 19.1337L192.856 19.4382C192.777 19.1562 192.639 18.8912 192.442 18.6431C192.25 18.3949 191.991 18.1947 191.664 18.0425C191.337 17.8902 190.936 17.8141 190.462 17.8141C189.825 17.8141 189.29 17.9523 188.855 18.2286C188.427 18.5049 188.215 18.863 188.221 19.3028C188.215 19.6806 188.353 19.988 188.635 20.2248C188.923 20.4617 189.397 20.6562 190.056 20.8085L192.273 21.2821C193.502 21.5472 194.415 21.9673 195.013 22.5425C195.617 23.1177 195.921 23.8705 195.927 24.8009C195.921 25.6186 195.681 26.3404 195.208 26.9663C194.74 27.5866 194.088 28.0716 193.254 28.4212C192.419 28.7708 191.461 28.9456 190.378 28.9456C188.788 28.9456 187.508 28.6129 186.538 27.9475C185.568 27.2765 184.99 26.3432 184.804 25.1477L187.79 24.8601C187.925 25.4466 188.212 25.8893 188.652 26.1881C189.092 26.487 189.665 26.6364 190.369 26.6364C191.097 26.6364 191.68 26.487 192.12 26.1881C192.566 25.8893 192.789 25.5199 192.789 25.0801C192.789 24.7079 192.645 24.4005 192.357 24.1581C192.075 23.9156 191.635 23.7295 191.038 23.5998L188.821 23.1346C187.575 22.8752 186.653 22.4381 186.056 21.8235C185.458 21.2032 185.162 20.4194 185.167 19.472C185.162 18.6712 185.379 17.9776 185.819 17.3912C186.264 16.7991 186.882 16.3423 187.671 16.0209C188.466 15.6938 189.383 15.5303 190.42 15.5303C191.943 15.5303 193.141 15.8545 194.015 16.503C194.895 17.1515 195.439 18.0284 195.648 19.1337Z" fill="#006C35"/>
<path fill-rule="evenodd" clip-rule="evenodd" d="M35.0932 16.1306C35.0932 26.587 22.2411 37.8284 19.8138 39.8582C19.5856 40.049 19.2572 40.0469 19.0309 39.8539C17.4868 38.5365 11.6912 33.3967 7.69826 27.1975C3.69453 28.4611 0.862033 28.6386 0.163958 27.4295C-1.00695 25.4014 4.20305 20.1232 12.2937 14.8227C18.228 16.7694 21.8732 12.4306 24.404 9.4182C25.1616 8.51648 25.8193 7.73361 26.4087 7.27373C26.6361 7.09635 26.6405 6.65146 26.3776 6.53293C18.6982 3.07025 11.707 5.35142 10.9532 11.6612C10.9223 11.9196 11.2085 12.0849 11.4278 11.9449C14.3796 10.0609 17.767 8.67082 20.321 8.0152C20.6817 7.92261 20.7646 8.28422 20.418 8.4203C18.0014 9.36899 15.5816 10.6732 13.4147 12.0212C13.4026 12.0209 13.3903 12.0238 13.3793 12.0303C9.6141 14.2702 6.39246 16.5966 4.00876 18.7314C3.83995 17.8599 3.74857 16.9908 3.74857 16.1306C3.74857 7.22192 10.7653 0 19.4209 0C24.0851 0 28.2734 2.09709 31.1444 5.42515C35.1477 4.16176 37.9799 3.98442 38.6779 5.19344C39.6158 6.81802 36.4593 10.5281 31.0074 14.6646C29.696 15.7026 28.1396 16.803 26.397 17.9151C20.5515 16.0902 16.9467 20.381 14.4373 23.3678C13.6797 24.2695 13.022 25.0524 12.4326 25.5123C12.2053 25.6897 12.2008 26.1346 12.4637 26.2531C20.1432 29.7158 27.1343 27.4346 27.8882 21.1249C27.919 20.8664 27.6329 20.7011 27.4135 20.8411C24.4618 22.7252 21.0743 24.1152 18.5203 24.7708C18.1596 24.8634 18.0767 24.5018 18.4234 24.3657C20.8431 23.4158 23.2661 22.1093 25.4352 20.7595C25.4446 20.7586 25.4539 20.7557 25.4623 20.7507C29.2898 18.4737 32.5556 16.1075 34.9504 13.9439C35.0446 14.659 35.0932 15.3889 35.0932 16.1306ZM33.887 9.91405C35.1507 8.61626 35.7321 7.61091 35.4216 7.07311C35.118 6.54731 34.0011 6.5363 32.3106 6.95241C32.9315 7.87438 33.4615 8.86618 33.887 9.91405ZM5.175 22.486C3.75963 23.891 3.09251 24.9808 3.42051 25.5489C3.73615 26.0956 4.931 26.0858 6.73576 25.618C6.14681 24.5917 5.61807 23.5438 5.175 22.486Z" fill="#006C35"/>
</svg>
